{"asset":{"version":"2.0","generator":"Blockbench 4.9.4 glTF exporter"},"scenes":[{"nodes":[3],"name":"blockbench_export"}],"scene":0,"nodes":[{"name":"sphere","mesh":0},{"rotation":[0.564766698241106,-0.3680146576917353,0.39173613609674063,0.6262160872716942],"name":"plane","mesh":1},{"rotation":[0.5560866245443707,0.3542662415371105,-0.40396323995732597,0.6340952585165717],"name":"plane","mesh":2},{"children":[0,1,2]}],"bufferViews":[{"buffer":0,"byteOffset":0,"byteLength":1944,"target":34962,"byteStride":12},{"buffer":0,"byteOffset":1944,"byteLength":1944,"target":34962,"byteStride":12},{"buffer":0,"byteOffset":3888,"byteLength":1296,"target":34962,"byteStride":8},{"buffer":0,"byteOffset":5184,"byteLength":20,"target":34963},{"buffer":0,"byteOffset":5204,"byteLength":80,"target":34963},{"buffer":0,"byteOffset":5284,"byteLength":8,"target":34963},{"buffer":0,"byteOffset":5292,"byteLength":44,"target":34963},{"buffer":0,"byteOffset":5336,"byteLength":20,"target":34963},{"buffer":0,"byteOffset":5356,"byteLength":32,"target":34963},{"buffer":0,"byteOffset":5388,"byteLength":20,"target":34963},{"buffer":0,"byteOffset":5408,"byteLength":32,"target":34963},{"buffer":0,"byteOffset":5440,"byteLength":8,"target":34963},{"buffer":0,"byteOffset":5448,"byteLength":44,"target":34963},{"buffer":0,"byteOffset":5492,"byteLength":8,"target":34963},{"buffer":0,"byteOffset":5500,"byteLength":44,"target":34963},{"buffer":0,"byteOffset":5544,"byteLength":20,"target":34963},{"buffer":0,"byteOffset":5564,"byteLength":32,"target":34963},{"buffer":0,"byteOffset":5596,"byteLength":20,"target":34963},{"buffer":0,"byteOffset":5616,"byteLength":32,"target":34963},{"buffer":0,"byteOffset":5648,"byteLength":48,"target":34962,"byteStride":12},{"buffer":0,"byteOffset":5696,"byteLength":48,"target":34962,"byteStride":12},{"buffer":0,"byteOffset":5744,"byteLength":32,"target":34962,"byteStride":8},{"buffer":0,"byteOffset":5776,"byteLength":12,"target":34963},{"buffer":0,"byteOffset":5788,"byteLength":48,"target":34962,"byteStride":12},{"buffer":0,"byteOffset":5836,"byteLength":48,"target":34962,"byteStride":12},{"buffer":0,"byteOffset":5884,"byteLength":32,"target":34962,"byteStride":8},{"buffer":0,"byteOffset":5916,"byteLength":12,"target":34963}],"buffers":[{"byteLength":5928,"uri":"data:application/octet-stream;base64,"}],"accessors":[{"bufferView":0,"componentType":5126,"count":162,"max":[0.53125,1.21875,0.7337871193885803],"min":[-0.53125,0.15625,-0.7662128806114197],"type":"VEC3"},{"bufferView":1,"componentType":5126,"count":162,"max":[0.9925201535224915,0.9754191040992737,1],"min":[-0.9925201535224915,-0.9754191040992737,-0.8865746855735779],"type":"VEC3"},{"bufferView":2,"componentType":5126,"count":162,"max":[0.7644518613815308,0.671875],"min":[0,0],"type":"VEC2"},{"bufferView":3,"componentType":5123,"count":9,"max":[6],"min":[0],"type":"SCALAR"},{"bufferView":4,"componentType":5123,"count":39,"max":[35],"min":[7],"type":"SCALAR"},{"bufferView":5,"componentType":5123,"count":3,"max":[38],"min":[36],"type":"SCALAR"},{"bufferView":6,"componentType":5123,"count":21,"max":[53],"min":[39],"type":"SCALAR"},{"bufferView":7,"componentType":5123,"count":9,"max":[60],"min":[54],"type":"SCALAR"},{"bufferView":8,"componentType":5123,"count":15,"max":[71],"min":[61],"type":"SCALAR"},{"bufferView":9,"componentType":5123,"count":9,"max":[78],"min":[72],"type":"SCALAR"},{"bufferView":10,"componentType":5123,"count":15,"max":[89],"min":[79],"type":"SCALAR"},{"bufferView":11,"componentType":5123,"count":3,"max":[92],"min":[90],"type":"SCALAR"},{"bufferView":12,"componentType":5123,"count":21,"max":[107],"min":[93],"type":"SCALAR"},{"bufferView":13,"componentType":5123,"count":3,"max":[110],"min":[108],"type":"SCALAR"},{"bufferView":14,"componentType":5123,"count":21,"max":[125],"min":[111],"type":"SCALAR"},{"bufferView":15,"componentType":5123,"count":9,"max":[132],"min":[126],"type":"SCALAR"},{"bufferView":16,"componentType":5123,"count":15,"max":[143],"min":[133],"type":"SCALAR"},{"bufferView":17,"componentType":5123,"count":9,"max":[150],"min":[144],"type":"SCALAR"},{"bufferView":18,"componentType":5123,"count":15,"max":[161],"min":[151],"type":"SCALAR"},{"bufferView":19,"componentType":5126,"count":4,"max":[-0.375,0.0625,-0.875],"min":[-1.125,0.0625,-1.625],"type":"VEC3"},{"bufferView":20,"componentType":5126,"count":4,"max":[0,1,0],"min":[0,1,0],"type":"VEC3"},{"bufferView":21,"componentType":5126,"count":4,"max":[1,1],"min":[0,0],"type":"VEC2"},{"bufferView":22,"componentType":5123,"count":6,"max":[3],"min":[0],"type":"SCALAR"},{"bufferView":23,"componentType":5126,"count":4,"max":[-0.5625,-0.0625,-0.75],"min":[-1.3125,-0.0625,-1.5],"type":"VEC3"},{"bufferView":24,"componentType":5126,"count":4,"max":[0,1,0],"min":[0,1,0],"type":"VEC3"},{"bufferView":25,"componentType":5126,"count":4,"max":[1,1],"min":[0,0],"type":"VEC2"},{"bufferView":26,"componentType":5123,"count":6,"max":[3],"min":[0],"type":"SCALAR"}],"materials":[{"pbrMetallicRoughness":{"metallicFactor":0,"roughnessFactor":1,"baseColorTexture":{"index":0}},"alphaMode":"MASK","alphaCutoff":0.05,"doubleSided":true},{"pbrMetallicRoughness":{"metallicFactor":0,"roughnessFactor":1,"baseColorTexture":{"index":1}},"alphaMode":"MASK","alphaCutoff":0.05,"doubleSided":true},{"pbrMetallicRoughness":{"metallicFactor":0,"roughnessFactor":1,"baseColorTexture":{"index":2}},"alphaMode":"MASK","alphaCutoff":0.05,"doubleSided":true}],"textures":[{"sampler":0,"source":0},{"sampler":1,"source":1},{"sampler":2,"source":2}],"samplers":[{"magFilter":9728,"minFilter":9728,"wrapS":33071,"wrapT":33071},{"magFilter":9728,"minFilter":9728,"wrapS":33071,"wrapT":33071},{"magFilter":9728,"minFilter":9728,"wrapS":33071,"wrapT":33071}],"images":[{"mimeType":"image/png","uri":"data:image/png;base64,"},{"mimeType":"image/png","uri":"data:image/png;base64,"},{"mimeType":"image/png","uri":"data:image/png;base64,"}],"meshes":[{"primitives":[{"mode":4,"attributes":{"POSITION":0,"NORMAL":1,"TEXCOORD_0":2},"indices":3,"material":0},{"mode":4,"attributes":{"POSITION":0,"NORMAL":1,"TEXCOORD_0":2},"indices":4,"material":1},{"mode":4,"attributes":{"POSITION":0,"NORMAL":1,"TEXCOORD_0":2},"indices":5,"material":0},{"mode":4,"attributes":{"POSITION":0,"NORMAL":1,"TEXCOORD_0":2},"indices":6,"material":1},{"mode":4,"attributes":{"POSITION":0,"NORMAL":1,"TEXCOORD_0":2},"indices":7,"material":0},{"mode":4,"attributes":{"POSITION":0,"NORMAL":1,"TEXCOORD_0":2},"indices":8,"material":1},{"mode":4,"attributes":{"POSITION":0,"NORMAL":1,"TEXCOORD_0":2},"indices":9,"material":0},{"mode":4,"attributes":{"POSITION":0,"NORMAL":1,"TEXCOORD_0":2},"indices":10,"material":1},{"mode":4,"attributes":{"POSITION":0,"NORMAL":1,"TEXCOORD_0":2},"indices":11,"material":0},{"mode":4,"attributes":{"POSITION":0,"NORMAL":1,"TEXCOORD_0":2},"indices":12,"material":1},{"mode":4,"attributes":{"POSITION":0,"NORMAL":1,"TEXCOORD_0":2},"indices":13,"material":0},{"mode":4,"attributes":{"POSITION":0,"NORMAL":1,"TEXCOORD_0":2},"indices":14,"material":1},{"mode":4,"attributes":{"POSITION":0,"NORMAL":1,"TEXCOORD_0":2},"indices":15,"material":0},{"mode":4,"attributes":{"POSITION":0,"NORMAL":1,"TEXCOORD_0":2},"indices":16,"material":1},{"mode":4,"attributes":{"POSITION":0,"NORMAL":1,"TEXCOORD_0":2},"indices":17,"material":0},{"mode":4,"attributes":{"POSITION":0,"NORMAL":1,"TEXCOORD_0":2},"indices":18,"material":1}]},{"primitives":[{"mode":4,"attributes":{"POSITION":19,"NORMAL":20,"TEXCOORD_0":21},"indices":22,"material":2}]},{"primitives":[{"mode":4,"attributes":{"POSITION":23,"NORMAL":24,"TEXCOORD_0":25},"indices":26,"material":2}]}]}